<?xml version="1.0" standalone="no"?>
<!DOCTYPE svg PUBLIC "-//W3C//DTD SVG 20010904//EN"
 "http://www.w3.org/TR/2001/REC-SVG-20010904/DTD/svg10.dtd">
<svg version="1.0" xmlns="http://www.w3.org/2000/svg"
 width="420.000000pt" height="420.000000pt" viewBox="0 0 420.000000 420.000000"
 preserveAspectRatio="xMidYMid meet">
<metadata>
Created by potrace 1.11, written by Peter Selinger 2001-2013
</metadata>
<g transform="translate(0.000000,420.000000) scale(0.100000,-0.100000)"
fill="#000000" stroke="none">
<path d="M2735 4035 c-5 -2 -98 -11 -205 -20 -210 -17 -316 -43 -425 -104 -52
-29 -438 -263 -488 -296 -57 -37 -127 -173 -212 -409 -24 -67 -64 -177 -90
-246 -26 -69 -64 -172 -85 -230 -21 -58 -52 -140 -69 -183 -17 -43 -31 -89
-31 -102 0 -50 -31 -21 -103 95 -71 116 -250 281 -448 412 -216 145 -336 154
-435 33 -33 -41 -39 -55 -39 -94 0 -62 67 -165 184 -286 107 -109 184 -214
216 -292 49 -120 113 -222 193 -310 45 -48 95 -106 111 -128 98 -129 127 -175
190 -291 106 -199 147 -271 184 -322 19 -26 61 -102 95 -169 78 -159 155 -264
283 -388 155 -150 318 -258 527 -350 149 -66 188 -79 429 -141 243 -62 281
-65 423 -30 209 52 289 103 309 196 20 88 24 199 12 280 -16 101 -74 270 -117
341 -19 32 -45 89 -58 126 -13 37 -41 102 -63 143 -37 70 -40 83 -46 182 -7
103 -6 111 25 195 35 98 43 113 67 113 9 0 29 7 45 15 38 20 58 19 90 -6 25
-19 26 -25 26 -110 0 -101 21 -209 50 -256 28 -47 92 -85 150 -91 56 -5 131
25 154 62 10 14 16 78 20 201 8 209 3 234 -67 347 -25 40 -55 98 -67 129 -45
118 -148 209 -237 209 -30 0 -140 -39 -370 -131 -68 -27 -85 -30 -98 -19 -20
17 -19 53 3 71 9 8 73 41 142 73 186 86 209 96 226 96 16 0 132 -42 284 -102
41 -16 85 -39 98 -51 13 -12 51 -68 85 -125 80 -135 125 -184 194 -219 104
-50 236 -27 285 51 26 43 20 113 -16 163 -87 123 -137 206 -160 263 -51 126
-147 222 -275 276 -68 29 -252 118 -400 195 -77 40 -91 44 -155 43 -50 0 -85
-7 -119 -22 -50 -22 -354 -231 -417 -286 -19 -17 -61 -48 -92 -69 -61 -42 -80
-41 -112 5 -31 44 -21 70 75 184 50 60 108 136 129 169 22 33 49 73 62 89 29
38 103 84 147 92 20 4 118 26 219 50 100 24 194 44 207 44 14 0 51 -13 83 -29
77 -38 141 -57 241 -71 189 -26 301 21 301 126 0 58 -21 106 -56 131 -16 12
-97 56 -179 98 -83 43 -175 95 -205 115 -148 100 -206 102 -558 24 -84 -19
-215 -45 -292 -58 -78 -14 -161 -34 -185 -46 -44 -21 -106 -99 -435 -547 -41
-56 -67 -83 -81 -83 -33 0 -33 27 1 68 34 43 99 221 121 330 10 55 17 67 52
95 22 18 83 73 136 123 53 49 118 105 144 122 85 59 209 112 308 132 262 52
396 134 406 247 6 60 -22 106 -86 140 -40 21 -121 30 -156 18z m-448 -2042
l81 -208 227 -5 228 -5 -182 -138 c-99 -77 -181 -140 -181 -142 0 -2 34 -99
75 -216 41 -117 73 -214 71 -216 -2 -2 -94 41 -204 96 l-199 100 -199 -103
c-110 -57 -200 -102 -201 -102 -1 1 27 98 63 215 35 118 64 217 64 221 0 3
-79 69 -176 146 l-177 139 233 5 233 5 76 207 c42 115 78 208 81 208 3 0 42
-93 87 -207z"/>
</g>
</svg>
